<svg xmlns="http://www.w3.org/2000/svg" viewBox="0 0 512 512"><path fill="#fff" d="M86.92 18.95C74.38 30.29 66.5 46.69 66.5 64.92c0 34.21 27.73 61.98 61.9 61.98 27 0 49.9-17.2 58.4-41.25.8 5.13 1.2 10.38 1.2 15.75 0 59.2-47.9 107.1-107.14 107.1-22.08 0-42.53-6.7-59.57-18.1v21.8c17.75 9.5 38.06 15 59.57 15 69.34 0 125.84-56.5 125.84-125.8 0-31.5-11.7-60.35-30.8-82.44-29.7-.1-59.3.11-88.98 0zm115.58 0c17 23.86 27 52.97 27 84.45 0 80.7-65.5 146-146.42 146-22.11 0-43.02-4.9-61.79-13.6v20.4c18.12 8.5 44.43 12.3 65.18 11.9L157.6 367l-12.1-88.5L266 494.2h21.4L163.9 273.1l172 221.1h160.7V339.1L307.2 197.2l130.1 43-169.2-113.7 68.7 6.6-89.1-42.45c-2-26.04-10.1-50.43-22.9-71.69h-22.3zM41.27 108.5c-7.72 0-14.74 3-19.98 7.9v42.9c5.24 4.9 12.26 7.9 19.98 7.9 16.19 0 29.32-13.2 29.32-29.4s-13.13-29.3-29.32-29.3z"/></svg>