<svg xmlns="http://www.w3.org/2000/svg" viewBox="0 0 512 512"><path fill="#fff" d="M18.3 20.6v14.84L278.1 311.8l20.5-11.4 9.4-16.9L41.34 20.6zm140.9 0l25.2 53.31-16.2 4.03-51-37.02 43.4 61.98 34-7.35 26.2 55.55 75.3-43.4c17.6 26.7 32 48.1 46.2 72.7l-21.9 14-69.6-26.1 71.6 57 31.2-24.4v.1l.8-1.4 83.5 240.1-136.8-47.6c-31.2-6-63.6-14.8-95-26.1-20.9-13.7-43.2-31.7-60.6-50.4l43.7-18.1L108 169l-24.11 49.3-65.59-92.5v32.3l68.54 96.6 23.26-47.4 51.4 81.4-46.9 19.4 8 9.8c13.5 16.4 30.5 32.1 48.1 45.9 23.5 21 51.5 39.9 81.6 56.5l-137.9-2 15.6-39.6-66.47-33 7.19-30.1 46.58-41.9L67.51 293 18.3 234.4v29.1l35.55 42.3-11.94 50 64.39 32-13.21 33.6-12.31 20.1-44.54-20.9 43.13 56.7 30.23-40.4 130.4 1.9-48.7 17.8 144.7 1.7c56.5 21.1 112.5 33.4 154.7 35.1-1.2-30.4-7.9-68-19.4-107.7l11.4-153.5-22.5 31.3-6.7-161.6 32.1-18.1L469 27.97l-7.2 43.58-32.5 18.26.2.23-35.4 19.56-49.3-89h-21.4L386.8 135l48.3-26.7 3.2 78.1-16.9-.4-4.2-49-18.2 59.5 40.4 16.4 3.9 94.8c-22.2-51.6-51.4-101.3-86-138.6-14-24.2-28.2-45.4-45.1-70.87l2.2-47.21-73.6-11.03 53.3 28.03-4.9 22.06-60.1 34.72-49.2-104.2h-20.7zm191.3 224.6l-38.1 69-68.9 38.1 164.1 57.1-57.1-164.2z"/></svg>